<?xml version="1.0" encoding="utf-8"?>
            <svg viewBox="0 0 120 120" id="PixelMon_327518" class="pixel-monster" data-monster-id="327518" preserveAspectRatio="xMinYMin meet" version="1.1" xmlns="http://www.w3.org/2000/svg" xmlns:xlink="http://www.w3.org/1999/xlink">
                <rect xmlns="http://www.w3.org/2000/svg" width="100%" height="100%" fill="#00000000" />
<rect xmlns="http://www.w3.org/2000/svg" x="0" y="0" width="10" height="10" fill="#553591"/>
<rect xmlns="http://www.w3.org/2000/svg" x="10" y="0" width="10" height="10" fill="#553591"/>
<rect xmlns="http://www.w3.org/2000/svg" x="20" y="0" width="10" height="10" fill="#553591"/>
<rect xmlns="http://www.w3.org/2000/svg" x="30" y="0" width="10" height="10" fill="#553591"/>
<rect xmlns="http://www.w3.org/2000/svg" x="40" y="0" width="10" height="10" fill="#553591"/>
<rect xmlns="http://www.w3.org/2000/svg" x="50" y="0" width="10" height="10" fill="#553591"/>
<rect xmlns="http://www.w3.org/2000/svg" x="60" y="0" width="10" height="10" fill="#553591"/>
<rect xmlns="http://www.w3.org/2000/svg" x="70" y="0" width="10" height="10" fill="#553591"/>
<rect xmlns="http://www.w3.org/2000/svg" x="80" y="0" width="10" height="10" fill="#553591"/>
<rect xmlns="http://www.w3.org/2000/svg" x="90" y="0" width="10" height="10" fill="#553591"/>
<rect xmlns="http://www.w3.org/2000/svg" x="100" y="0" width="10" height="10" fill="#553591"/>
<rect xmlns="http://www.w3.org/2000/svg" x="110" y="0" width="10" height="10" fill="#553591"/>
<rect xmlns="http://www.w3.org/2000/svg" x="10" y="10" width="10" height="10" fill="#553591"/>
<rect xmlns="http://www.w3.org/2000/svg" x="20" y="10" width="10" height="10" fill="#553591"/>
<rect xmlns="http://www.w3.org/2000/svg" x="30" y="10" width="10" height="10" fill="#553591"/>
<rect xmlns="http://www.w3.org/2000/svg" x="40" y="10" width="10" height="10" fill="#553591"/>
<rect xmlns="http://www.w3.org/2000/svg" x="50" y="10" width="10" height="10" fill="#553591"/>
<rect xmlns="http://www.w3.org/2000/svg" x="60" y="10" width="10" height="10" fill="#553591"/>
<rect xmlns="http://www.w3.org/2000/svg" x="70" y="10" width="10" height="10" fill="#553591"/>
<rect xmlns="http://www.w3.org/2000/svg" x="80" y="10" width="10" height="10" fill="#553591"/>
<rect xmlns="http://www.w3.org/2000/svg" x="90" y="10" width="10" height="10" fill="#553591"/>
<rect xmlns="http://www.w3.org/2000/svg" x="100" y="10" width="10" height="10" fill="#553591"/>
<rect xmlns="http://www.w3.org/2000/svg" x="20" y="20" width="10" height="10" fill="#553591"/>
<rect xmlns="http://www.w3.org/2000/svg" x="50" y="20" width="10" height="10" fill="#553591"/>
<rect xmlns="http://www.w3.org/2000/svg" x="60" y="20" width="10" height="10" fill="#553591"/>
<rect xmlns="http://www.w3.org/2000/svg" x="90" y="20" width="10" height="10" fill="#553591"/>
<rect xmlns="http://www.w3.org/2000/svg" x="20" y="30" width="10" height="10" fill="#553591"/>
<rect xmlns="http://www.w3.org/2000/svg" x="30" y="30" width="10" height="10" fill="#553591"/>
<rect xmlns="http://www.w3.org/2000/svg" x="40" y="30" width="10" height="10" fill="#553591"/>
<rect xmlns="http://www.w3.org/2000/svg" x="50" y="30" width="10" height="10" fill="#553591"/>
<rect xmlns="http://www.w3.org/2000/svg" x="60" y="30" width="10" height="10" fill="#553591"/>
<rect xmlns="http://www.w3.org/2000/svg" x="70" y="30" width="10" height="10" fill="#553591"/>
<rect xmlns="http://www.w3.org/2000/svg" x="80" y="30" width="10" height="10" fill="#553591"/>
<rect xmlns="http://www.w3.org/2000/svg" x="90" y="30" width="10" height="10" fill="#553591"/>
<rect xmlns="http://www.w3.org/2000/svg" x="10" y="40" width="10" height="10" fill="#553591"/>
<rect xmlns="http://www.w3.org/2000/svg" x="20" y="40" width="10" height="10" fill="#553591"/>
<rect xmlns="http://www.w3.org/2000/svg" x="30" y="40" width="10" height="10" fill="#553591"/>
<rect xmlns="http://www.w3.org/2000/svg" x="40" y="40" width="10" height="10" fill="#553591"/>
<rect xmlns="http://www.w3.org/2000/svg" x="50" y="40" width="10" height="10" fill="#553591"/>
<rect xmlns="http://www.w3.org/2000/svg" x="60" y="40" width="10" height="10" fill="#553591"/>
<rect xmlns="http://www.w3.org/2000/svg" x="70" y="40" width="10" height="10" fill="#553591"/>
<rect xmlns="http://www.w3.org/2000/svg" x="80" y="40" width="10" height="10" fill="#553591"/>
<rect xmlns="http://www.w3.org/2000/svg" x="90" y="40" width="10" height="10" fill="#553591"/>
<rect xmlns="http://www.w3.org/2000/svg" x="100" y="40" width="10" height="10" fill="#553591"/>
<rect xmlns="http://www.w3.org/2000/svg" x="10" y="50" width="10" height="10" fill="#553591"/>
<rect xmlns="http://www.w3.org/2000/svg" x="40" y="50" width="10" height="10" fill="#553591"/>
<rect xmlns="http://www.w3.org/2000/svg" x="50" y="50" width="10" height="10" fill="#553591"/>
<rect xmlns="http://www.w3.org/2000/svg" x="60" y="50" width="10" height="10" fill="#553591"/>
<rect xmlns="http://www.w3.org/2000/svg" x="70" y="50" width="10" height="10" fill="#553591"/>
<rect xmlns="http://www.w3.org/2000/svg" x="100" y="50" width="10" height="10" fill="#553591"/>
<rect xmlns="http://www.w3.org/2000/svg" x="10" y="60" width="10" height="10" fill="#553591"/>
<rect xmlns="http://www.w3.org/2000/svg" x="30" y="60" width="10" height="10" fill="#553591"/>
<rect xmlns="http://www.w3.org/2000/svg" x="40" y="60" width="10" height="10" fill="#553591"/>
<rect xmlns="http://www.w3.org/2000/svg" x="70" y="60" width="10" height="10" fill="#553591"/>
<rect xmlns="http://www.w3.org/2000/svg" x="80" y="60" width="10" height="10" fill="#553591"/>
<rect xmlns="http://www.w3.org/2000/svg" x="100" y="60" width="10" height="10" fill="#553591"/>
<rect xmlns="http://www.w3.org/2000/svg" x="10" y="70" width="10" height="10" fill="#553591"/>
<rect xmlns="http://www.w3.org/2000/svg" x="30" y="70" width="10" height="10" fill="#553591"/>
<rect xmlns="http://www.w3.org/2000/svg" x="40" y="70" width="10" height="10" fill="#553591"/>
<rect xmlns="http://www.w3.org/2000/svg" x="70" y="70" width="10" height="10" fill="#553591"/>
<rect xmlns="http://www.w3.org/2000/svg" x="80" y="70" width="10" height="10" fill="#553591"/>
<rect xmlns="http://www.w3.org/2000/svg" x="100" y="70" width="10" height="10" fill="#553591"/>
<rect xmlns="http://www.w3.org/2000/svg" x="30" y="80" width="10" height="10" fill="#553591"/>
<rect xmlns="http://www.w3.org/2000/svg" x="40" y="80" width="10" height="10" fill="#553591"/>
<rect xmlns="http://www.w3.org/2000/svg" x="50" y="80" width="10" height="10" fill="#553591"/>
<rect xmlns="http://www.w3.org/2000/svg" x="60" y="80" width="10" height="10" fill="#553591"/>
<rect xmlns="http://www.w3.org/2000/svg" x="70" y="80" width="10" height="10" fill="#553591"/>
<rect xmlns="http://www.w3.org/2000/svg" x="80" y="80" width="10" height="10" fill="#553591"/>
<rect xmlns="http://www.w3.org/2000/svg" x="30" y="90" width="10" height="10" fill="#553591"/>
<rect xmlns="http://www.w3.org/2000/svg" x="40" y="90" width="10" height="10" fill="#553591"/>
<rect xmlns="http://www.w3.org/2000/svg" x="50" y="90" width="10" height="10" fill="#553591"/>
<rect xmlns="http://www.w3.org/2000/svg" x="60" y="90" width="10" height="10" fill="#553591"/>
<rect xmlns="http://www.w3.org/2000/svg" x="70" y="90" width="10" height="10" fill="#553591"/>
<rect xmlns="http://www.w3.org/2000/svg" x="80" y="90" width="10" height="10" fill="#553591"/>
<rect xmlns="http://www.w3.org/2000/svg" x="20" y="100" width="10" height="10" fill="#553591"/>
<rect xmlns="http://www.w3.org/2000/svg" x="30" y="100" width="10" height="10" fill="#553591"/>
<rect xmlns="http://www.w3.org/2000/svg" x="40" y="100" width="10" height="10" fill="#553591"/>
<rect xmlns="http://www.w3.org/2000/svg" x="50" y="100" width="10" height="10" fill="#553591"/>
<rect xmlns="http://www.w3.org/2000/svg" x="60" y="100" width="10" height="10" fill="#553591"/>
<rect xmlns="http://www.w3.org/2000/svg" x="70" y="100" width="10" height="10" fill="#553591"/>
<rect xmlns="http://www.w3.org/2000/svg" x="80" y="100" width="10" height="10" fill="#553591"/>
<rect xmlns="http://www.w3.org/2000/svg" x="90" y="100" width="10" height="10" fill="#553591"/>
<rect xmlns="http://www.w3.org/2000/svg" x="10" y="110" width="10" height="10" fill="#553591"/>
<rect xmlns="http://www.w3.org/2000/svg" x="20" y="110" width="10" height="10" fill="#553591"/>
<rect xmlns="http://www.w3.org/2000/svg" x="30" y="110" width="10" height="10" fill="#553591"/>
<rect xmlns="http://www.w3.org/2000/svg" x="40" y="110" width="10" height="10" fill="#553591"/>
<rect xmlns="http://www.w3.org/2000/svg" x="50" y="110" width="10" height="10" fill="#553591"/>
<rect xmlns="http://www.w3.org/2000/svg" x="60" y="110" width="10" height="10" fill="#553591"/>
<rect xmlns="http://www.w3.org/2000/svg" x="70" y="110" width="10" height="10" fill="#553591"/>
<rect xmlns="http://www.w3.org/2000/svg" x="80" y="110" width="10" height="10" fill="#553591"/>
<rect xmlns="http://www.w3.org/2000/svg" x="90" y="110" width="10" height="10" fill="#553591"/>
<rect xmlns="http://www.w3.org/2000/svg" x="100" y="110" width="10" height="10" fill="#553591"/>
</svg>
